<mxfile host="app.diagrams.net" modified="2023-06-03T15:58:17.889Z" agent="Mozilla/5.0 (X11; Linux x86_64) AppleWebKit/537.36 (KHTML, like Gecko) Chrome/113.0.0.0 Safari/537.36" etag="hi_Dwq2tdzCOxGRItLsD" version="21.3.7" type="github">
  <diagram name="Page-1" id="KFv--zXMzqBAj9XAZBBE">
    <mxGraphModel dx="1434" dy="835" grid="1" gridSize="10" guides="1" tooltips="1" connect="1" arrows="1" fold="1" page="1" pageScale="1" pageWidth="827" pageHeight="1169" math="0" shadow="0">
      <root>
        <mxCell id="0" />
        <mxCell id="1" parent="0" />
        <mxCell id="UaBz7aHXaiSGMNc_PXg6-7" value="" style="ellipse;shape=cloud;whiteSpace=wrap;html=1;" vertex="1" parent="1">
          <mxGeometry x="120" y="150" width="640" height="500" as="geometry" />
        </mxCell>
        <mxCell id="UaBz7aHXaiSGMNc_PXg6-6" style="edgeStyle=orthogonalEdgeStyle;rounded=0;orthogonalLoop=1;jettySize=auto;html=1;entryX=0;entryY=0.5;entryDx=0;entryDy=0;shape=flexArrow;startArrow=block;" edge="1" parent="1" source="UaBz7aHXaiSGMNc_PXg6-2" target="UaBz7aHXaiSGMNc_PXg6-3">
          <mxGeometry relative="1" as="geometry" />
        </mxCell>
        <mxCell id="UaBz7aHXaiSGMNc_PXg6-2" value="Control Plane" style="rounded=0;whiteSpace=wrap;html=1;" vertex="1" parent="1">
          <mxGeometry x="240" y="320" width="120" height="60" as="geometry" />
        </mxCell>
        <mxCell id="UaBz7aHXaiSGMNc_PXg6-5" style="edgeStyle=orthogonalEdgeStyle;rounded=0;orthogonalLoop=1;jettySize=auto;html=1;exitX=0.5;exitY=1;exitDx=0;exitDy=0;shape=flexArrow;startArrow=block;" edge="1" parent="1" source="UaBz7aHXaiSGMNc_PXg6-3" target="UaBz7aHXaiSGMNc_PXg6-4">
          <mxGeometry relative="1" as="geometry" />
        </mxCell>
        <mxCell id="UaBz7aHXaiSGMNc_PXg6-3" value="Data Plane" style="rounded=0;whiteSpace=wrap;html=1;" vertex="1" parent="1">
          <mxGeometry x="520" y="320" width="120" height="60" as="geometry" />
        </mxCell>
        <mxCell id="UaBz7aHXaiSGMNc_PXg6-4" value="" style="sketch=0;outlineConnect=0;fontColor=#232F3E;gradientColor=none;fillColor=#3F8624;strokeColor=none;dashed=0;verticalLabelPosition=bottom;verticalAlign=top;align=center;html=1;fontSize=12;fontStyle=0;aspect=fixed;pointerEvents=1;shape=mxgraph.aws4.iot_analytics_data_store;" vertex="1" parent="1">
          <mxGeometry x="553" y="480" width="54" height="78" as="geometry" />
        </mxCell>
        <mxCell id="UaBz7aHXaiSGMNc_PXg6-8" value="&lt;b&gt;&lt;font style=&quot;font-size: 21px;&quot;&gt;Policy Engine&lt;/font&gt;&lt;/b&gt;" style="text;html=1;strokeColor=none;fillColor=none;align=center;verticalAlign=middle;whiteSpace=wrap;rounded=0;" vertex="1" parent="1">
          <mxGeometry x="354" y="160" width="166" height="30" as="geometry" />
        </mxCell>
      </root>
    </mxGraphModel>
  </diagram>
</mxfile>
